<svg width="24" height="25" viewBox="0 0 24 25" fill="none" xmlns="http://www.w3.org/2000/svg">
<path d="M16.5 7.25V17.83C16.5 19.92 14.97 21.78 12.89 21.98C12.3343 22.0355 11.7732 21.9739 11.2429 21.799C10.7125 21.6242 10.2247 21.3401 9.81104 20.965C9.39733 20.5899 9.06689 20.1323 8.84107 19.6215C8.61524 19.1108 8.49905 18.5584 8.5 18V5.64C8.5 4.33 9.44 3.14 10.74 3.01C11.0886 2.97354 11.441 3.01081 11.7743 3.11938C12.1076 3.22795 12.4144 3.4054 12.6746 3.64021C12.9349 3.87502 13.1429 4.16194 13.2851 4.48234C13.4273 4.80274 13.5005 5.14946 13.5 5.5V16C13.5 16.55 13.05 17 12.5 17C11.95 17 11.5 16.55 11.5 16V7.25C11.5 6.84 11.16 6.5 10.75 6.5C10.34 6.5 10 6.84 10 7.25V15.86C10 17.17 10.94 18.36 12.24 18.49C12.5886 18.5265 12.941 18.4892 13.2743 18.3806C13.6076 18.272 13.9144 18.0946 14.1746 17.8598C14.4349 17.625 14.6429 17.3381 14.7851 17.0177C14.9273 16.6973 15.0005 16.3505 15 16V5.67C15 3.58 13.47 1.72 11.39 1.52C10.8346 1.46558 10.2739 1.528 9.74402 1.70324C9.21415 1.87848 8.72681 2.16266 8.31334 2.53752C7.89987 2.91237 7.56942 3.3696 7.34324 3.8798C7.11705 4.39001 7.00013 4.9419 7 5.5V17.77C7 20.64 9.1 23.21 11.96 23.48C15.25 23.78 18 21.22 18 18V7.25C18 6.84 17.66 6.5 17.25 6.5C16.84 6.5 16.5 6.84 16.5 7.25Z" fill="#373A36"/>
</svg>
