<svg width="24" height="24" viewBox="0 0 24 24" fill="none" xmlns="http://www.w3.org/2000/svg">
<g clip-path="url(#clip0_939_15809)">
<path d="M13.5933 5.55986L20 11.9999L13.5933 18.4399C13.5355 18.5158 13.462 18.5785 13.3778 18.6236C13.2936 18.6687 13.2007 18.6952 13.1054 18.7013C13.0101 18.7074 12.9146 18.6929 12.8253 18.6589C12.7361 18.6248 12.6552 18.572 12.5882 18.504C12.5211 18.436 12.4695 18.3544 12.4367 18.2646C12.404 18.1749 12.3909 18.0792 12.3983 17.984C12.4057 17.8888 12.4336 17.7963 12.4799 17.7128C12.5262 17.6292 12.5899 17.5566 12.6667 17.4999L17.46 12.6665H4.70667C4.52986 12.6665 4.36029 12.5963 4.23526 12.4713C4.11024 12.3462 4.04 12.1767 4.04 11.9999C4.04 11.8231 4.11024 11.6535 4.23526 11.5285C4.36029 11.4034 4.52986 11.3332 4.70667 11.3332H17.46L12.6667 6.49986C12.542 6.37433 12.4723 6.20442 12.473 6.02751C12.4736 5.8506 12.5445 5.68118 12.67 5.55653C12.7955 5.43188 12.9654 5.3622 13.1424 5.36283C13.3193 5.36345 13.4887 5.43433 13.6133 5.55986H13.5933Z" fill="#373936" fill-opacity="0.6"/>
</g>
<defs>
<clipPath id="clip0_939_15809">
<rect width="24" height="24" fill="white" transform="matrix(0 -1 -1 0 24 24)"/>
</clipPath>
</defs>
</svg>
