<svg width="20" height="20" viewBox="0 0 20 20" fill="none" xmlns="http://www.w3.org/2000/svg">
<path d="M10.7498 9.99712L16.3778 4.36362C16.4771 4.26384 16.5328 4.12878 16.5327 3.98801C16.5326 3.84725 16.4767 3.71226 16.3773 3.61262C16.1783 3.41462 15.8278 3.41362 15.6268 3.61362L10.0003 9.24712L4.37179 3.61212C4.17179 3.41462 3.82129 3.41562 3.62229 3.61312C3.57289 3.66231 3.53379 3.72086 3.50726 3.78533C3.48074 3.8498 3.46732 3.9189 3.46779 3.98862C3.46779 4.13062 3.52279 4.26362 3.62229 4.36212L9.25029 9.99662L3.62279 15.6316C3.52348 15.7316 3.46786 15.8668 3.46815 16.0077C3.46843 16.1486 3.52458 16.2836 3.62429 16.3831C3.72079 16.4786 3.85729 16.5336 3.99829 16.5336H4.00129C4.14279 16.5331 4.27929 16.4776 4.37379 16.3811L10.0003 10.7476L15.6288 16.3826C15.7283 16.4816 15.8613 16.5366 16.0023 16.5366C16.072 16.5367 16.141 16.523 16.2054 16.4964C16.2698 16.4697 16.3283 16.4307 16.3776 16.3814C16.4268 16.3321 16.4659 16.2736 16.4925 16.2092C16.5192 16.1448 16.5329 16.0758 16.5328 16.0061C16.5328 15.8646 16.4778 15.7311 16.3778 15.6326L10.7498 9.99712Z" fill="#373A36"/>
</svg>
