<svg width="24" height="25" viewBox="0 0 24 25" fill="none" xmlns="http://www.w3.org/2000/svg">
<path d="M0 4.51868V6.01868H14.25V17.2687H9.633C9.2985 15.9794 8.139 15.0187 6.75 15.0187C5.361 15.0187 4.2015 15.9794 3.867 17.2687H3V13.5187H1.5V18.7687H3.867C4.2015 20.0579 5.361 21.0187 6.75 21.0187C8.139 21.0187 9.2985 20.0579 9.633 18.7687H15.867C16.2015 20.0579 17.361 21.0187 18.75 21.0187C20.139 21.0187 21.2985 20.0579 21.633 18.7687H24V12.6517L23.9528 12.5339L22.4528 8.03393L22.29 7.51868H15.75V4.51868H0ZM0.75 7.51868V9.01868H7.5V7.51868H0.75ZM15.75 9.01868H21.2108L22.5 12.8624V17.2687H21.633C21.2985 15.9794 20.139 15.0187 18.75 15.0187C17.361 15.0187 16.2015 15.9794 15.867 17.2687H15.75V9.01868ZM1.5 10.5187V12.0187H6V10.5187H1.5ZM6.75 16.5187C7.58775 16.5187 8.25 17.1809 8.25 18.0187C8.25 18.8564 7.58775 19.5187 6.75 19.5187C5.91225 19.5187 5.25 18.8564 5.25 18.0187C5.25 17.1809 5.91225 16.5187 6.75 16.5187ZM18.75 16.5187C19.5877 16.5187 20.25 17.1809 20.25 18.0187C20.25 18.8564 19.5877 19.5187 18.75 19.5187C17.9123 19.5187 17.25 18.8564 17.25 18.0187C17.25 17.1809 17.9123 16.5187 18.75 16.5187Z" fill="#373936" fill-opacity="0.7"/>
</svg>
