<svg width="18" height="21" viewBox="0 0 18 21" fill="none" xmlns="http://www.w3.org/2000/svg">
<path d="M1.27077 0.116724C1.14403 0.0415796 0.999661 0.00131858 0.852324 3.18413e-05C0.704988 -0.0012549 0.559935 0.0364784 0.431902 0.109398C0.303869 0.182317 0.197417 0.287825 0.12336 0.415204C0.0493033 0.542582 0.0102796 0.687293 0.0102539 0.834635V20.1654C0.0102796 20.3127 0.0493033 20.4574 0.12336 20.5848C0.197417 20.7122 0.303869 20.8177 0.431902 20.8906C0.559935 20.9635 0.704988 21.0013 0.852324 21C0.999661 20.9987 1.14403 20.9584 1.27077 20.8833L17.581 11.2179C17.7056 11.144 17.8088 11.0389 17.8804 10.9131C17.9521 10.7872 17.9898 10.6448 17.9898 10.5C17.9898 10.3552 17.9521 10.2128 17.8804 10.0869C17.8088 9.96106 17.7056 9.856 17.581 9.78209L1.27077 0.116724Z" fill="white"/>
</svg>
