<svg width="10" height="12" viewBox="0 0 10 12" fill="none" xmlns="http://www.w3.org/2000/svg">
<path d="M4.99911 0.75C5.15382 0.75 5.30219 0.811458 5.41159 0.920854C5.52099 1.03025 5.58245 1.17862 5.58245 1.33333V4.98967L8.74878 3.1615C8.88269 3.08537 9.04128 3.06529 9.18993 3.10565C9.33859 3.14601 9.46525 3.24353 9.54227 3.37693C9.61929 3.51033 9.64042 3.66878 9.60105 3.8177C9.56168 3.96662 9.465 4.09393 9.33211 4.17183L6.16578 6L9.33211 7.82817C9.39899 7.86619 9.45768 7.91707 9.50482 7.97786C9.55195 8.03866 9.58659 8.10819 9.60675 8.18243C9.62691 8.25667 9.63218 8.33417 9.62226 8.41046C9.61235 8.48674 9.58744 8.56032 9.54897 8.62694C9.51051 8.69356 9.45924 8.75192 9.39813 8.79865C9.33702 8.84538 9.26727 8.87956 9.1929 8.89922C9.11852 8.91889 9.04099 8.92365 8.96477 8.91322C8.88855 8.9028 8.81514 8.87741 8.74878 8.8385L5.58245 7.01033V10.6667C5.58245 10.8214 5.52099 10.9697 5.41159 11.0791C5.30219 11.1885 5.15382 11.25 4.99911 11.25C4.8444 11.25 4.69603 11.1885 4.58663 11.0791C4.47724 10.9697 4.41578 10.8214 4.41578 10.6667V7.01033L1.24944 8.8385C1.18308 8.87741 1.10967 8.9028 1.03345 8.91322C0.95723 8.92365 0.879701 8.91889 0.805326 8.89922C0.730951 8.87956 0.661201 8.84538 0.60009 8.79865C0.538979 8.75192 0.487715 8.69356 0.449249 8.62694C0.410783 8.56032 0.385876 8.48674 0.37596 8.41046C0.366044 8.33417 0.371316 8.25667 0.391472 8.18243C0.411629 8.10819 0.446271 8.03866 0.493405 7.97786C0.54054 7.91707 0.599235 7.86619 0.666111 7.82817L3.83244 6L0.666111 4.17183C0.533224 4.09393 0.436545 3.96662 0.397173 3.8177C0.3578 3.66878 0.37893 3.51033 0.455951 3.37693C0.532972 3.24353 0.659632 3.14601 0.80829 3.10565C0.956948 3.06529 1.11554 3.08537 1.24944 3.1615L4.41578 4.98967V1.33333C4.41578 1.17862 4.47724 1.03025 4.58663 0.920854C4.69603 0.811458 4.8444 0.75 4.99911 0.75Z" fill="#F24F66"/>
</svg>
